<svg width="24" height="24" viewBox="0 0 24 24" fill="none" xmlns="http://www.w3.org/2000/svg">
<g clip-path="url(#clip0_0_627)">
<mask id="mask0_0_627" style="mask-type:alpha" maskUnits="userSpaceOnUse" x="0" y="0" width="24" height="24">
<path d="M24 0H0V24H24V0Z" fill="white"/>
</mask>
<g mask="url(#mask0_0_627)">
<path d="M5.70001 18.6791C6.49999 19.0791 8.40001 19.4591 9.60001 17.7791M7.20001 17.1791L5.70001 18.6791L7.20001 17.1791ZM13.2 17.1791C13 18.0791 12 19.9991 9.60001 20.4791C7.20001 20.9591 5.00001 20.4791 4.20001 20.1791L5.70001 18.6791L13.2 17.1791Z" stroke="#112025" stroke-linecap="round" stroke-linejoin="round"/>
<path d="M8.02406 15.7659C7.60988 16.2613 7.21646 16.635 6.90002 16.8784C13.86 19.2784 17.7 14.7797 17.7 12.9791C17.7 12.0027 17.7 10.0565 17.7 8.47906M17.7 6.0784C17.7 3.07905 10.8 1.87867 10.8 7.8784L17.7 6.0784ZM17.7 6.0784L20.1 7.27906L17.7 8.47906V6.0784ZM17.7 6.0784C17.7 6.0784 17.7 7.14724 17.7 8.47906V6.0784Z" stroke="#112025" stroke-linecap="round" stroke-linejoin="round"/>
<path d="M13.8215 6.6791C13.7482 6.27914 13.8215 5.47913 14.7 5.47913C15.5785 5.47913 15.6518 6.27914 15.5785 6.6791" stroke="#112025"/>
<path d="M8.4 11.4788C7.92 13.6388 5.6 14.7788 4.5 15.0788C8.82 16.7588 12.5 14.9788 13.8 13.8788C14.9 12.9788 16.5001 10.6987 14.1 8.77882C11.7 6.859 9 8.77882 8.4 11.4788Z" stroke="#112025" stroke-linecap="round" stroke-linejoin="round"/>
<path d="M10.8448 13.9693C11.6749 13.6581 12.6622 12.9175 13.3349 11.4792" stroke="#112025" stroke-linecap="round"/>
<path d="M9.60093 14.2803C9.60093 14.1084 9.74029 13.969 9.91219 13.969C10.0841 13.969 10.2234 14.1084 10.2234 14.2803C10.2234 14.4522 10.0841 14.5916 9.91219 14.5916C9.74029 14.5916 9.60093 14.4522 9.60093 14.2803Z" fill="#112025"/>
</g>
</g>
<defs>
<clipPath id="clip0_0_627">
<rect width="24" height="24" fill="white"/>
</clipPath>
</defs>
</svg>
