<svg width="24" height="24" viewBox="0 0 24 24" fill="none" xmlns="http://www.w3.org/2000/svg">
<rect width="24" height="24" fill="#222222"/>
<path d="M-2443 -1785C-2443 -2286.47 -2036.47 -2693 -1535 -2693H9463C9964.47 -2693 10371 -2286.47 10371 -1785V6186C10371 6687.47 9964.47 7094 9463 7094H-1535C-2036.47 7094 -2443 6687.47 -2443 6186V-1785Z" fill="#2B2B2B"/>
<path d="M-1535 -2692H9463V-2694H-1535V-2692ZM10370 -1785V6186H10372V-1785H10370ZM9463 7093H-1535V7095H9463V7093ZM-2442 6186V-1785H-2444V6186H-2442ZM-1535 7093C-2035.92 7093 -2442 6686.92 -2442 6186H-2444C-2444 6688.03 -2037.03 7095 -1535 7095V7093ZM10370 6186C10370 6686.92 9963.92 7093 9463 7093V7095C9965.03 7095 10372 6688.03 10372 6186H10370ZM9463 -2692C9963.92 -2692 10370 -2285.92 10370 -1785H10372C10372 -2287.03 9965.03 -2694 9463 -2694V-2692ZM-1535 -2694C-2037.03 -2694 -2444 -2287.03 -2444 -1785H-2442C-2442 -2285.92 -2035.92 -2692 -1535 -2692V-2694Z" fill="white" fill-opacity="0.1"/>
<g clip-path="url(#clip0_0_1)">
<rect width="1920" height="6623" transform="translate(-403 -1111)" fill="white"/>
<rect width="1920" height="1000" transform="translate(-403 -270)" fill="white"/>
<rect opacity="0.2" x="-140.5" y="-27.5" width="1395" height="79" rx="7.5" stroke="#195F6B"/>
<g clip-path="url(#clip1_0_1)">
<mask id="mask0_0_1" style="mask-type:alpha" maskUnits="userSpaceOnUse" x="0" y="0" width="24" height="24">
<path d="M24 0H0V24H24V0Z" fill="white"/>
</mask>
<g mask="url(#mask0_0_1)">
<path d="M12 14.7C12 15.5 12.9 17.1 14.1 17.1C15.3 17.1 15.6 16.5 15.9 15.9M12 14.7L10.2 12.9H13.8L12 14.7ZM12 14.7C12 15.5 11.1 17.1 9.89998 17.1C8.69998 17.1 8.39998 16.5 8.09998 15.9L12 14.7Z" stroke="#112025" stroke-linecap="round" stroke-linejoin="round"/>
<path d="M13.2429 3.98824C13.5536 5.76669 12.3108 7.27736 11.6893 7.94444C15.4179 7.94444 15.8576 5.83648 15.9222 4.83336M10.1358 4.10049C6.22673 4.95502 3.30005 8.44088 3.30005 12.6111C3.30005 15.7222 4.54291 20.7 12 20.7C19.4572 20.7 20.7 15.7222 20.7 12.6111C20.7 9.21296 18.7568 6.26924 15.9222 4.83336L10.1358 4.10049ZM10.1358 4.10049C10.7363 3.9692 11.3601 3.90002 12 3.90002C12.422 3.90002 12.837 3.9301 13.2429 3.98824L10.1358 4.10049ZM10.1358 4.10049C10.3429 4.967 10.26 6.82448 8.27147 7.32224C9.92861 7.69214 13.2429 7.54328 13.2429 3.98824L10.1358 4.10049ZM13.2429 3.98824C14.1943 4.12451 15.0961 4.4149 15.9222 4.83336L13.2429 3.98824Z" stroke="#112025" stroke-linecap="round" stroke-linejoin="round"/>
<path d="M7.82867 11.1C7.73105 10.7 7.82867 9.90002 9.00005 9.90002C10.1714 9.90002 10.269 10.7 10.1714 11.1" stroke="#112025"/>
<path d="M13.8287 11.1C13.731 10.7 13.8287 9.90002 15 9.90002C16.1714 9.90002 16.269 10.7 16.1714 11.1" stroke="#112025"/>
<path d="M16.5 5.22513C17.028 4.58344 19.0872 3.30005 23.1 3.30005C23.1 6.60017 22.3608 8.80031 20.46 9.90035" stroke="#112025"/>
<path d="M17.5559 6.07303C17.8516 5.69872 19.0047 4.95007 21.2519 4.95007C21.2519 6.87517 20.8379 8.15851 19.7735 8.80021" stroke="#112025"/>
<path d="M7.50002 5.22505C6.97202 4.58338 4.91282 3.30005 0.900024 3.30005C0.900024 6.60005 1.63922 8.80007 3.54002 9.90005" stroke="#112025"/>
<path d="M6.44415 6.07297C6.14847 5.69869 4.99534 4.95007 2.74817 4.95007C2.74817 6.87505 3.16212 8.15839 4.22657 8.80009" stroke="#112025"/>
<path d="M1.20002 10.5L6.30002 13.2M0.900024 15H5.70002H0.900024Z" stroke="#112025" stroke-linecap="round" stroke-linejoin="round"/>
<path d="M7.8 14.1C7.96569 14.1 8.1 13.9657 8.1 13.8C8.1 13.6343 7.96569 13.5 7.8 13.5C7.63431 13.5 7.5 13.6343 7.5 13.8C7.5 13.9657 7.63431 14.1 7.8 14.1Z" fill="#112025"/>
<path d="M7.20002 15.3001C7.36571 15.3001 7.50002 15.1658 7.50002 15.0001C7.50002 14.8344 7.36571 14.7001 7.20002 14.7001C7.03434 14.7001 6.90002 14.8344 6.90002 15.0001C6.90002 15.1658 7.03434 15.3001 7.20002 15.3001Z" fill="#112025"/>
<path d="M16.2 14.1C16.0343 14.1 15.9 13.9657 15.9 13.8C15.9 13.6343 16.0343 13.5 16.2 13.5C16.3657 13.5 16.5 13.6343 16.5 13.8C16.5 13.9657 16.3657 14.1 16.2 14.1Z" fill="#112025"/>
<path d="M16.8 15.3001C16.6343 15.3001 16.5 15.1658 16.5 15.0001C16.5 14.8344 16.6343 14.7001 16.8 14.7001C16.9657 14.7001 17.1 14.8344 17.1 15.0001C17.1 15.1658 16.9657 15.3001 16.8 15.3001Z" fill="#112025"/>
<path d="M22.8001 10.5L17.7001 13.2M23.1001 15H18.3001H23.1001Z" stroke="#112025" stroke-linecap="round" stroke-linejoin="round"/>
</g>
</g>
</g>
<defs>
<clipPath id="clip0_0_1">
<rect width="1920" height="6623" fill="white" transform="translate(-403 -1111)"/>
</clipPath>
<clipPath id="clip1_0_1">
<rect width="24" height="24" fill="white"/>
</clipPath>
</defs>
</svg>
