<svg width="24" height="24" viewBox="0 0 24 24" fill="none" xmlns="http://www.w3.org/2000/svg">
<g clip-path="url(#clip0_0_575)">
<mask id="mask0_0_575" style="mask-type:alpha" maskUnits="userSpaceOnUse" x="0" y="0" width="24" height="24">
<path d="M24 0H0V24H24V0Z" fill="#112025"/>
</mask>
<g mask="url(#mask0_0_575)">
<path d="M7.82867 9.90007C7.73105 9.50005 7.82867 8.70007 9.00005 8.70007C10.1714 8.70007 10.269 9.50005 10.1714 9.90007" stroke="#112025"/>
<path d="M13.8287 9.90007C13.731 9.50005 13.8287 8.70007 15 8.70007C16.1714 8.70007 16.269 9.50005 16.1714 9.90007" stroke="#112025"/>
<path d="M7.80005 6.0001C8.10005 5.2001 9.00005 3.9001 10.2001 3.6001" stroke="#112025" stroke-linecap="round"/>
<path d="M7.50007 7.2001C7.66576 7.2001 7.80007 7.06578 7.80007 6.9001C7.80007 6.73441 7.66576 6.6001 7.50007 6.6001C7.33439 6.6001 7.20007 6.73441 7.20007 6.9001C7.20007 7.06578 7.33439 7.2001 7.50007 7.2001Z" fill="#112025"/>
<path d="M8.10005 2.84426C7.60355 2.45139 6.31259 1.96029 5.12093 3.13891C3.92929 4.31754 2.83694 5.59442 2.43973 6.08553C1.6453 7.06773 0.950165 9.38571 4.52511 10.8" stroke="#112025"/>
<path d="M15.9 2.84426C16.3965 2.45139 17.6875 1.96029 18.8791 3.13891C20.0708 4.31754 21.1631 5.59442 21.5604 6.08553C22.3548 7.06773 23.0499 9.38571 19.4749 10.8" stroke="#112025"/>
<path d="M4.505 13.2C4.40507 9.40007 5.76419 1.80005 12.0002 1.80005C18.2361 1.80005 19.595 9.40007 19.495 13.2" stroke="#112025"/>
<path d="M9.6001 18.6001C9.6001 21.7681 10.8001 22.2001 12.0001 22.2001C13.2001 22.2001 14.4001 21.7681 14.4001 18.6001" stroke="#112025"/>
<path d="M6.65456 12V11.55H6.63254L6.61058 11.5522L6.65456 12ZM11.55 20.4C11.55 20.6485 11.7515 20.85 12 20.85C12.2485 20.85 12.45 20.6485 12.45 20.4H11.55ZM11.5315 14.4143L11.1801 14.6954L11.5315 14.4143ZM12.4686 14.4143L12.8199 14.6954L12.4686 14.4143ZM6.61058 11.5522C6.0224 11.6099 5.16618 11.8807 4.44895 12.509C3.71617 13.151 3.15002 14.1488 3.15002 15.6H4.05002C4.05002 14.4112 4.50206 13.659 5.04201 13.186C5.5975 12.6993 6.26858 12.4901 6.69854 12.4478L6.61058 11.5522ZM3.15002 15.6C3.15002 17.0148 3.58394 18.0403 4.27065 18.7118C4.95199 19.378 5.83589 19.65 6.65456 19.65V18.75C6.0278 18.75 5.38442 18.542 4.89985 18.0682C4.42065 17.5997 4.05002 16.8252 4.05002 15.6H3.15002ZM17.04 19.65C17.961 19.65 18.9282 19.4611 19.6674 18.8199C20.4189 18.1681 20.85 17.1239 20.85 15.6H19.95C19.95 16.9561 19.5712 17.7119 19.0776 18.1401C18.5718 18.5789 17.859 18.75 17.04 18.75V19.65ZM20.85 15.6C20.85 14.011 20.1663 12.9798 19.3324 12.359C18.5216 11.7556 17.5851 11.55 17.04 11.55V12.45C17.4114 12.45 18.1548 12.6044 18.795 13.081C19.4119 13.5402 19.95 14.309 19.95 15.6H20.85ZM6.65456 12.45H9.60002V11.55H6.65456V12.45ZM9.2486 12.2811L11.1801 14.6954L11.8829 14.1332L9.95144 11.7189L9.2486 12.2811ZM12.8199 14.6954L14.7514 12.2811L14.0486 11.7189L12.1171 14.1332L12.8199 14.6954ZM14.4 12.45H17.04V11.55H14.4V12.45ZM9.60002 12C9.8507 12.3737 9.85034 12.374 9.84998 12.3742C9.84986 12.3743 9.8495 12.3745 9.84926 12.3747C9.84878 12.375 9.8483 12.3753 9.84782 12.3756C9.84692 12.3763 9.84602 12.3768 9.84512 12.3774C9.84338 12.3785 9.84182 12.3795 9.84032 12.3805C9.83732 12.3823 9.83486 12.3838 9.83288 12.385C9.82898 12.3872 9.82724 12.3881 9.8279 12.3878C9.82928 12.3871 9.84026 12.3815 9.8633 12.3726C9.9095 12.3547 10.0026 12.3236 10.1605 12.2903C10.4776 12.2235 11.045 12.15 12 12.15V11.25C11.0023 11.25 10.3697 11.3265 9.97496 11.4097C9.77702 11.4514 9.6362 11.4953 9.53756 11.5336C9.48812 11.5528 9.44894 11.5708 9.41822 11.5864C9.4028 11.5943 9.38954 11.6016 9.37814 11.6083C9.37244 11.6116 9.36722 11.6148 9.36242 11.6178C9.36002 11.6193 9.35774 11.6208 9.35558 11.6222C9.3545 11.6229 9.35342 11.6236 9.3524 11.6243C9.35186 11.6246 9.35138 11.6249 9.35084 11.6253C9.3506 11.6255 9.35024 11.6257 9.35012 11.6258C9.3497 11.626 9.34934 11.6263 9.60002 12ZM12 12.15C12.955 12.15 13.5225 12.2235 13.8395 12.2903C13.9975 12.3236 14.0905 12.3547 14.1367 12.3726C14.1598 12.3815 14.1708 12.3871 14.1721 12.3878C14.1728 12.3881 14.1711 12.3872 14.1672 12.385C14.1652 12.3838 14.1627 12.3823 14.1597 12.3805C14.1582 12.3795 14.1567 12.3785 14.1549 12.3774C14.154 12.3768 14.1531 12.3763 14.1522 12.3756C14.1517 12.3753 14.1513 12.375 14.1508 12.3747C14.1505 12.3745 14.1502 12.3743 14.1501 12.3742C14.1497 12.374 14.1493 12.3737 14.4 12C14.6507 11.6263 14.6503 11.626 14.6499 11.6258C14.6498 11.6257 14.6494 11.6255 14.6492 11.6253C14.6487 11.6249 14.6482 11.6246 14.6476 11.6243C14.6466 11.6236 14.6455 11.6229 14.6445 11.6222C14.6423 11.6208 14.64 11.6193 14.6376 11.6178C14.6328 11.6148 14.6276 11.6116 14.6219 11.6083C14.6105 11.6016 14.5972 11.5943 14.5818 11.5864C14.5511 11.5708 14.5119 11.5528 14.4625 11.5336C14.3638 11.4953 14.223 11.4514 14.0251 11.4097C13.6303 11.3265 12.9977 11.25 12 11.25V12.15ZM6.65456 19.65C7.43558 19.65 8.59898 19.4116 9.62672 19.1899C10.1532 19.0763 10.6501 18.9655 11.0749 18.8822C11.5106 18.7968 11.8253 18.75 12 18.75V17.85C11.7247 17.85 11.3269 17.9157 10.9018 17.999C10.4659 18.0845 9.95366 18.1987 9.43694 18.3101C8.3783 18.5384 7.31906 18.75 6.65456 18.75V19.65ZM12 18.75C12.1696 18.75 12.4438 18.795 12.8247 18.8798C13.1984 18.9631 13.6251 19.0727 14.0992 19.1874C15.025 19.4114 16.1091 19.65 17.04 19.65V18.75C16.2309 18.75 15.2451 18.5386 14.3109 18.3126C13.8549 18.2023 13.4041 18.0869 13.0204 18.0014C12.6437 17.9175 12.2805 17.85 12 17.85V18.75ZM11.55 18.3V20.4H12.45V18.3H11.55ZM11.1801 14.6954C11.6004 15.2209 12.3996 15.2209 12.8199 14.6954L12.1171 14.1332C12.0571 14.2083 11.943 14.2083 11.8829 14.1332L11.1801 14.6954Z" fill="#112025"/>
<path d="M6.9001 15.6C7.06578 15.6 7.2001 15.4657 7.2001 15.3C7.2001 15.1343 7.06578 15 6.9001 15C6.73441 15 6.6001 15.1343 6.6001 15.3C6.6001 15.4657 6.73441 15.6 6.9001 15.6Z" fill="#112025"/>
<path d="M6.3 17.4001C6.46569 17.4001 6.6 17.2657 6.6 17.1C6.6 16.9344 6.46569 16.8 6.3 16.8C6.13431 16.8 6 16.9344 6 17.1C6 17.2657 6.13431 17.4001 6.3 17.4001Z" fill="#112025"/>
<path d="M8.10005 16.8001C8.26573 16.8001 8.40005 16.6658 8.40005 16.5001C8.40005 16.3344 8.26573 16.2001 8.10005 16.2001C7.93436 16.2001 7.80005 16.3344 7.80005 16.5001C7.80005 16.6658 7.93436 16.8001 8.10005 16.8001Z" fill="#112025"/>
<path d="M17.1 15.6C16.9343 15.6 16.8 15.4657 16.8 15.3C16.8 15.1343 16.9343 15 17.1 15C17.2657 15 17.4 15.1343 17.4 15.3C17.4 15.4657 17.2657 15.6 17.1 15.6Z" fill="#112025"/>
<path d="M17.7 17.4001C17.5343 17.4001 17.4 17.2657 17.4 17.1C17.4 16.9344 17.5343 16.8 17.7 16.8C17.8657 16.8 18 16.9344 18 17.1C18 17.2657 17.8657 17.4001 17.7 17.4001Z" fill="#112025"/>
<path d="M15.9001 16.8001C15.7344 16.8001 15.6001 16.6658 15.6001 16.5001C15.6001 16.3344 15.7344 16.2001 15.9001 16.2001C16.0658 16.2001 16.2001 16.3344 16.2001 16.5001C16.2001 16.6658 16.0658 16.8001 15.9001 16.8001Z" fill="#112025"/>
</g>
</g>
<defs>
<clipPath id="clip0_0_575">
<rect width="24" height="24" fill="white"/>
</clipPath>
</defs>
</svg>
