<svg width="24" height="24" viewBox="0 0 24 24" fill="none" xmlns="http://www.w3.org/2000/svg">
<g clip-path="url(#clip0_0_613)">
<mask id="mask0_0_613" style="mask-type:alpha" maskUnits="userSpaceOnUse" x="0" y="0" width="24" height="24">
<path d="M24 0H0V24H24V0Z" fill="white"/>
</mask>
<g mask="url(#mask0_0_613)">
<path d="M5.40001 11.9999C4.00001 11.7999 1.20001 12.3599 1.20001 16.1999C2.80001 16.0999 5.88001 15.1198 5.40001 11.9999Z" stroke="#112025" stroke-linecap="round" stroke-linejoin="round"/>
<path d="M5.4002 11.7C5.60019 10.3 5.0402 7.5 1.2002 7.5C1.30023 9.10002 2.28027 12.18 5.4002 11.7Z" stroke="#112025" stroke-linecap="round" stroke-linejoin="round"/>
<path d="M11.1 7.49995V4.19995C12.2 4.39995 14.64 5.03995 15.6 7.19995" stroke="#112025" stroke-linecap="round" stroke-linejoin="round"/>
<path d="M11.1 16.7999V20.0999C12.2 19.8999 14.64 19.2599 15.6 17.0999" stroke="#112025" stroke-linecap="round" stroke-linejoin="round"/>
<path d="M16.8 7.59529C16.8 7.59529 15.3 8.98201 15.3 12.141C15.3 15.2999 16.8 16.6867 16.8 16.6867M16.8 7.59529C15.9686 7.34761 15.0666 7.19995 14.1 7.19995C9.60002 7.19995 6.5 10.3999 5.40002 11.9999C6.30002 13.6999 9.60002 17.0999 14.1 17.0999C15.0583 17.0999 15.9622 16.9457 16.8 16.6867V7.59529ZM16.8 7.59529C19.8394 8.50081 21.9363 10.7436 22.8 11.9999C22.0917 13.3379 19.8967 15.7289 16.8 16.6867V7.59529Z" stroke="#112025" stroke-linecap="round" stroke-linejoin="round"/>
<path d="M13.7656 10.3386C13.3517 11.3657 13.2003 12.9 13.9569 14.7333" stroke="#112025" stroke-linecap="round"/>
<path d="M14.53 8.92958C14.6883 9.07467 14.699 9.32062 14.5539 9.47891C14.4088 9.63721 14.1629 9.64791 14.0046 9.50282C13.8463 9.35773 13.8356 9.11179 13.9807 8.95349C14.1258 8.7952 14.3717 8.78449 14.53 8.92958Z" fill="#112025"/>
<path d="M19.2532 10.9054C19.4975 11.1293 19.514 11.5089 19.2901 11.7532C19.0662 11.9974 18.6867 12.014 18.4424 11.7901C18.1981 11.5662 18.1816 11.1866 18.4055 10.9423C18.6294 10.6981 19.0089 10.6815 19.2532 10.9054Z" fill="#112025"/>
</g>
</g>
<defs>
<clipPath id="clip0_0_613">
<rect width="24" height="24" fill="white"/>
</clipPath>
</defs>
</svg>
