<svg width="24" height="20" viewBox="0 0 24 20" fill="none" xmlns="http://www.w3.org/2000/svg">
<path d="M11.9999 14.9095L9.70898 12.9458C9.70898 12.9458 10.0363 11.964 11.9999 11.964C13.9635 11.964 14.2908 12.9458 14.2908 12.9458L11.9999 14.9095ZM11.9999 14.9095V19.164V14.9095ZM11.9999 19.164C11.9999 19.164 13.309 19.164 13.6363 18.5095C13.9635 17.8549 13.6363 15.8913 13.6363 15.8913H10.3635C10.3635 15.8913 10.0363 17.8549 10.3635 18.5095C10.6908 19.164 11.9999 19.164 11.9999 19.164Z" stroke="#112025" stroke-linecap="round" stroke-linejoin="round"/>
<path d="M9.05511 2.14551C9.05511 6.7273 11.0187 7.3819 12.0006 7.3819C12.9824 7.3819 14.946 6.7273 14.946 2.14551" stroke="#112025"/>
<path d="M16.582 2.88933C17.0014 2.57481 18.0287 2.13447 18.7835 2.88933C19.5382 3.64419 19.098 4.67147 18.7835 5.09069" stroke="#112025" stroke-linecap="round" stroke-linejoin="round"/>
<path d="M14.9449 1.77434C15.8884 1.06666 18.1999 0.075905 19.8982 1.77434C21.5964 3.47279 20.6058 5.78413 19.8982 6.72745" stroke="#112025" stroke-linecap="round" stroke-linejoin="round"/>
<path d="M7.41788 2.88933C6.99854 2.57481 5.97121 2.13447 5.21643 2.88933C4.46166 3.64419 4.90194 4.67147 5.21643 5.09069" stroke="#112025" stroke-linecap="round" stroke-linejoin="round"/>
<path d="M9.05516 1.77434C8.11166 1.06666 5.80018 0.075905 4.10194 1.77434C2.40369 3.47279 3.39433 5.78413 4.10194 6.72745" stroke="#112025" stroke-linecap="round" stroke-linejoin="round"/>
<path d="M22.5089 10.6545L17.5634 13.4036M22.7997 15.2364H18.1452H22.7997Z" stroke="#112025" stroke-linecap="round" stroke-linejoin="round"/>
<path d="M1.49092 10.6545L6.43639 13.4036M1.20001 15.2364H5.85456H1.20001Z" stroke="#112025" stroke-linecap="round" stroke-linejoin="round"/>
<path d="M7.44919 10.0001C7.34269 9.56374 7.44919 8.69104 8.72707 8.69104C10.0049 8.69104 10.1114 9.56374 10.0049 10.0001" stroke="#112025"/>
<path d="M13.9953 10.0001C13.8888 9.56374 13.9953 8.69104 15.2732 8.69104C16.5511 8.69104 16.6575 9.56374 16.551 10.0001" stroke="#112025"/>
<path d="M11.9998 1.49109C7.6424 1.49109 4.11007 4.93871 4.11007 9.19163C4.11007 13.1561 1.8253 17.2573 10.0362 17.7953L10.3635 15.8911H13.6362L13.9635 17.7953C22.1743 17.2573 19.8895 13.1561 19.8895 9.19163C19.8895 4.93871 16.3572 1.49109 11.9998 1.49109Z" stroke="#112025" stroke-linecap="round" stroke-linejoin="round"/>
</svg>
